<mxfile host="app.diagrams.net" agent="Mozilla/5.0 (Windows NT 10.0; Win64; x64) AppleWebKit/537.36 (KHTML, like Gecko) Chrome/133.0.0.0 Safari/537.36" version="26.0.16" pages="2">
  <diagram name="Page-1" id="nhpkwz77i0UHv35BJpsx">
    <mxGraphModel dx="1750" dy="2039" grid="1" gridSize="11" guides="1" tooltips="1" connect="1" arrows="1" fold="1" page="1" pageScale="1" pageWidth="827" pageHeight="1169" math="0" shadow="0">
      <root>
        <mxCell id="0" />
        <mxCell id="1" parent="0" />
        <mxCell id="12eTkEtlXsUpFR4AQQ0C-1" value="" style="rounded=0;whiteSpace=wrap;html=1;align=center;fillColor=default;" parent="1" vertex="1">
          <mxGeometry x="3.5" y="-554" width="150" height="350" as="geometry" />
        </mxCell>
        <mxCell id="12eTkEtlXsUpFR4AQQ0C-2" value="Source" style="text;html=1;align=center;verticalAlign=middle;whiteSpace=wrap;rounded=0;fillColor=#dae8fc;strokeColor=#6c8ebf;" parent="1" vertex="1">
          <mxGeometry x="40" y="-584" width="77" height="30" as="geometry" />
        </mxCell>
        <mxCell id="12eTkEtlXsUpFR4AQQ0C-3" value="" style="rounded=0;whiteSpace=wrap;html=1;align=center;" parent="1" vertex="1">
          <mxGeometry x="242" y="-556.6" width="143" height="350" as="geometry" />
        </mxCell>
        <mxCell id="12eTkEtlXsUpFR4AQQ0C-4" value="Bronze Layer" style="text;html=1;align=center;verticalAlign=middle;whiteSpace=wrap;rounded=0;fillColor=#ffe6cc;strokeColor=#d79b00;" parent="1" vertex="1">
          <mxGeometry x="275" y="-589" width="77" height="30" as="geometry" />
        </mxCell>
        <mxCell id="12eTkEtlXsUpFR4AQQ0C-5" value="" style="rounded=0;whiteSpace=wrap;html=1;align=center;" parent="1" vertex="1">
          <mxGeometry x="416" y="-554" width="165" height="345" as="geometry" />
        </mxCell>
        <mxCell id="12eTkEtlXsUpFR4AQQ0C-6" value="Silver Layer" style="text;html=1;align=center;verticalAlign=middle;whiteSpace=wrap;rounded=0;fillColor=#f5f5f5;strokeColor=#666666;fontColor=#333333;" parent="1" vertex="1">
          <mxGeometry x="460" y="-588" width="77" height="29" as="geometry" />
        </mxCell>
        <mxCell id="12eTkEtlXsUpFR4AQQ0C-7" value="" style="rounded=0;whiteSpace=wrap;html=1;align=center;" parent="1" vertex="1">
          <mxGeometry x="601.5" y="-561.5" width="157.5" height="350" as="geometry" />
        </mxCell>
        <mxCell id="12eTkEtlXsUpFR4AQQ0C-8" value="Gold Layer" style="text;html=1;align=center;verticalAlign=middle;whiteSpace=wrap;rounded=0;fillColor=#fff2cc;strokeColor=#d6b656;" parent="1" vertex="1">
          <mxGeometry x="641.75" y="-591.5" width="77" height="30" as="geometry" />
        </mxCell>
        <mxCell id="12eTkEtlXsUpFR4AQQ0C-9" value="" style="rounded=0;whiteSpace=wrap;html=1;" parent="1" vertex="1">
          <mxGeometry x="830.5" y="-561.5" width="165" height="352.5" as="geometry" />
        </mxCell>
        <mxCell id="12eTkEtlXsUpFR4AQQ0C-11" value="Data Warehouse" style="text;html=1;align=center;verticalAlign=middle;whiteSpace=wrap;rounded=0;fillColor=#dae8fc;strokeColor=#6c8ebf;" parent="1" vertex="1">
          <mxGeometry x="453.5" y="-638" width="101" height="30" as="geometry" />
        </mxCell>
        <mxCell id="12eTkEtlXsUpFR4AQQ0C-12" value="Consume" style="text;html=1;align=center;verticalAlign=middle;whiteSpace=wrap;rounded=0;fillColor=#dae8fc;strokeColor=#6c8ebf;" parent="1" vertex="1">
          <mxGeometry x="862.5" y="-591.5" width="101" height="30" as="geometry" />
        </mxCell>
        <mxCell id="12eTkEtlXsUpFR4AQQ0C-13" value="" style="aspect=fixed;html=1;align=center;fontSize=12;image=img/lib/azure2/general/File.svg;shape=image;labelBackgroundColor=default;verticalAlign=top;verticalLabelPosition=bottom;points=[];" parent="1" vertex="1">
          <mxGeometry x="77.74" y="-484" width="27.11" height="22" as="geometry" />
        </mxCell>
        <mxCell id="12eTkEtlXsUpFR4AQQ0C-14" value="" style="image;aspect=fixed;html=1;points=[];align=center;fontSize=12;image=img/lib/azure2/general/Folder_Blank.svg;" parent="1" vertex="1">
          <mxGeometry x="51.4" y="-502" width="40.66" height="33" as="geometry" />
        </mxCell>
        <mxCell id="12eTkEtlXsUpFR4AQQ0C-17" value="" style="aspect=fixed;html=1;align=center;fontSize=12;image=img/lib/azure2/general/File.svg;shape=image;labelBackgroundColor=default;verticalAlign=top;verticalLabelPosition=bottom;points=[];" parent="1" vertex="1">
          <mxGeometry x="75.52" y="-393.20000000000005" width="28.59" height="23.2" as="geometry" />
        </mxCell>
        <mxCell id="12eTkEtlXsUpFR4AQQ0C-18" value="" style="image;aspect=fixed;html=1;points=[];align=center;fontSize=12;image=img/lib/azure2/general/Folder_Blank.svg;" parent="1" vertex="1">
          <mxGeometry x="52.14" y="-414" width="40.66" height="33" as="geometry" />
        </mxCell>
        <mxCell id="12eTkEtlXsUpFR4AQQ0C-19" value="CRM" style="text;html=1;align=center;verticalAlign=middle;whiteSpace=wrap;rounded=0;" parent="1" vertex="1">
          <mxGeometry x="44.110000000000014" y="-467.5" width="60" height="30" as="geometry" />
        </mxCell>
        <mxCell id="12eTkEtlXsUpFR4AQQ0C-20" value="ERP" style="text;html=1;align=center;verticalAlign=middle;whiteSpace=wrap;rounded=0;" parent="1" vertex="1">
          <mxGeometry x="44.850000000000016" y="-370" width="60" height="30" as="geometry" />
        </mxCell>
        <mxCell id="12eTkEtlXsUpFR4AQQ0C-21" value="" style="verticalLabelPosition=bottom;shadow=0;dashed=0;align=center;html=1;verticalAlign=top;strokeWidth=1;shape=mxgraph.mockup.markup.line;strokeColor=#6c8ebf;fillColor=#dae8fc;" parent="1" vertex="1">
          <mxGeometry x="28.5" y="-352" width="100" height="20" as="geometry" />
        </mxCell>
        <mxCell id="12eTkEtlXsUpFR4AQQ0C-22" value="&lt;font style=&quot;font-size: 11px;&quot;&gt;Object Type: CSV File&lt;/font&gt;&lt;div&gt;&lt;font style=&quot;font-size: 11px;&quot;&gt;Interface: Files in Folder&lt;/font&gt;&lt;/div&gt;" style="text;html=1;align=center;verticalAlign=middle;whiteSpace=wrap;rounded=0;" parent="1" vertex="1">
          <mxGeometry y="-319" width="154" height="30" as="geometry" />
        </mxCell>
        <mxCell id="12eTkEtlXsUpFR4AQQ0C-23" value="" style="html=1;verticalLabelPosition=bottom;align=center;labelBackgroundColor=#ffffff;verticalAlign=top;strokeWidth=2;strokeColor=#d79b00;shadow=0;dashed=0;shape=mxgraph.ios7.icons.data;fillColor=#ffe6cc;" parent="1" vertex="1">
          <mxGeometry x="282.75" y="-514.5500000000001" width="61.5" height="58.1" as="geometry" />
        </mxCell>
        <mxCell id="12eTkEtlXsUpFR4AQQ0C-24" value="" style="html=1;verticalLabelPosition=bottom;align=center;labelBackgroundColor=#ffffff;verticalAlign=top;strokeWidth=2;strokeColor=#666666;shadow=0;dashed=0;shape=mxgraph.ios7.icons.data;fillColor=#f5f5f5;fontColor=#333333;" parent="1" vertex="1">
          <mxGeometry x="467.75" y="-514.5500000000001" width="61.5" height="58.1" as="geometry" />
        </mxCell>
        <mxCell id="12eTkEtlXsUpFR4AQQ0C-25" value="" style="html=1;verticalLabelPosition=bottom;align=center;labelBackgroundColor=#ffffff;verticalAlign=top;strokeWidth=2;strokeColor=#d6b656;shadow=0;dashed=0;shape=mxgraph.ios7.icons.data;fillColor=#fff2cc;" parent="1" vertex="1">
          <mxGeometry x="652.25" y="-514.5500000000001" width="61.5" height="58.1" as="geometry" />
        </mxCell>
        <mxCell id="12eTkEtlXsUpFR4AQQ0C-26" value="" style="verticalLabelPosition=bottom;shadow=0;dashed=0;align=center;html=1;verticalAlign=top;strokeWidth=1;shape=mxgraph.mockup.markup.line;strokeColor=#666666;fillColor=#f5f5f5;fontColor=#333333;" parent="1" vertex="1">
          <mxGeometry x="448.5" y="-451" width="100" height="20" as="geometry" />
        </mxCell>
        <mxCell id="12eTkEtlXsUpFR4AQQ0C-27" value="" style="verticalLabelPosition=bottom;shadow=0;dashed=0;align=center;html=1;verticalAlign=top;strokeWidth=1;shape=mxgraph.mockup.markup.line;strokeColor=#d79b00;fillColor=#ffe6cc;" parent="1" vertex="1">
          <mxGeometry x="263.5" y="-451" width="100" height="20" as="geometry" />
        </mxCell>
        <mxCell id="12eTkEtlXsUpFR4AQQ0C-28" value="" style="verticalLabelPosition=bottom;shadow=0;dashed=0;align=center;html=1;verticalAlign=top;strokeWidth=1;shape=mxgraph.mockup.markup.line;strokeColor=#d6b656;fillColor=#fff2cc;" parent="1" vertex="1">
          <mxGeometry x="633" y="-451" width="100" height="20" as="geometry" />
        </mxCell>
        <mxCell id="12eTkEtlXsUpFR4AQQ0C-29" value="&lt;b&gt;Object &lt;/b&gt;: Tables&lt;div&gt;&lt;b&gt;Load &lt;/b&gt;:&lt;/div&gt;&lt;div&gt;&lt;ul&gt;&lt;li&gt;Batch Processing&lt;/li&gt;&lt;li&gt;Full Load&lt;/li&gt;&lt;/ul&gt;&lt;div&gt;&lt;b&gt;Transformation : &lt;/b&gt;None&lt;/div&gt;&lt;/div&gt;&lt;div&gt;&lt;b&gt;Data Modeling&lt;/b&gt;: None&lt;/div&gt;" style="text;html=1;align=left;verticalAlign=middle;whiteSpace=wrap;rounded=0;" parent="1" vertex="1">
          <mxGeometry x="253" y="-431" width="132" height="179.6" as="geometry" />
        </mxCell>
        <mxCell id="12eTkEtlXsUpFR4AQQ0C-31" value="&lt;b&gt;Object &lt;/b&gt;: Tables&lt;div&gt;&lt;b&gt;Load &lt;/b&gt;:&lt;/div&gt;&lt;div&gt;&lt;ul&gt;&lt;li&gt;Batch Processing&lt;/li&gt;&lt;li&gt;Full Load&lt;/li&gt;&lt;/ul&gt;&lt;div&gt;&lt;b&gt;Transformation :&amp;nbsp;&lt;/b&gt;&lt;/div&gt;&lt;/div&gt;&lt;div&gt;&lt;ul&gt;&lt;li&gt;Data Cleansing&lt;/li&gt;&lt;li&gt;Data Standrization&lt;/li&gt;&lt;li&gt;Data Normalization&lt;/li&gt;&lt;li&gt;Data Enrichment&lt;/li&gt;&lt;/ul&gt;&lt;/div&gt;&lt;div&gt;&lt;b&gt;Data Modeling&lt;/b&gt;: None&lt;/div&gt;" style="text;html=1;align=left;verticalAlign=middle;whiteSpace=wrap;rounded=0;" parent="1" vertex="1">
          <mxGeometry x="427" y="-431" width="154" height="200" as="geometry" />
        </mxCell>
        <mxCell id="12eTkEtlXsUpFR4AQQ0C-32" value="&lt;b&gt;Object &lt;/b&gt;: View&lt;div&gt;&lt;b&gt;Load &lt;/b&gt;:&lt;span style=&quot;white-space: pre;&quot;&gt;&#x9;&lt;/span&gt;No&lt;/div&gt;&lt;div&gt;&lt;b style=&quot;background-color: transparent; color: light-dark(rgb(0, 0, 0), rgb(255, 255, 255));&quot;&gt;Transformation :&amp;nbsp;&lt;/b&gt;&lt;/div&gt;&lt;div&gt;&lt;ul&gt;&lt;li&gt;Data Integrations&lt;/li&gt;&lt;li&gt;Aggregations&lt;/li&gt;&lt;li&gt;Business Logic&lt;/li&gt;&lt;/ul&gt;&lt;/div&gt;&lt;div&gt;&lt;b&gt;Data Modeling&lt;/b&gt;:&amp;nbsp;&lt;/div&gt;&lt;div&gt;&lt;ul&gt;&lt;li&gt;Star Schema&lt;/li&gt;&lt;li&gt;Flat Table&lt;/li&gt;&lt;li&gt;Aggregated Table&lt;/li&gt;&lt;/ul&gt;&lt;/div&gt;" style="text;html=1;align=left;verticalAlign=middle;whiteSpace=wrap;rounded=0;" parent="1" vertex="1">
          <mxGeometry x="606" y="-431" width="154" height="200" as="geometry" />
        </mxCell>
        <mxCell id="12eTkEtlXsUpFR4AQQ0C-33" value="" style="shape=mxgraph.arrows.arrow_right;html=1;verticalLabelPosition=bottom;verticalAlign=top;strokeWidth=2;strokeColor=#006EAF;fillColor=none;fontColor=#ffffff;" parent="1" vertex="1">
          <mxGeometry x="154" y="-414" width="88.5" height="33" as="geometry" />
        </mxCell>
        <mxCell id="12eTkEtlXsUpFR4AQQ0C-34" value="" style="shape=mxgraph.arrows.arrow_right;html=1;verticalLabelPosition=bottom;verticalAlign=top;strokeWidth=2;strokeColor=#006EAF;fillColor=none;fontColor=#ffffff;" parent="1" vertex="1">
          <mxGeometry x="760" y="-414" width="88.5" height="33" as="geometry" />
        </mxCell>
        <mxCell id="12eTkEtlXsUpFR4AQQ0C-35" value="" style="shape=mxgraph.arrows.arrow_right;html=1;verticalLabelPosition=bottom;verticalAlign=top;strokeWidth=2;strokeColor=#006EAF;fillColor=none;fontColor=#ffffff;" parent="1" vertex="1">
          <mxGeometry x="369.5" y="-407.1" width="37.5" height="19.2" as="geometry" />
        </mxCell>
        <mxCell id="12eTkEtlXsUpFR4AQQ0C-37" value="" style="shape=mxgraph.arrows.arrow_right;html=1;verticalLabelPosition=bottom;verticalAlign=top;strokeWidth=2;strokeColor=#006EAF;fillColor=none;fontColor=#ffffff;" parent="1" vertex="1">
          <mxGeometry x="564" y="-407.1" width="37.5" height="19.2" as="geometry" />
        </mxCell>
        <mxCell id="12eTkEtlXsUpFR4AQQ0C-38" value="" style="image;aspect=fixed;html=1;points=[];align=center;fontSize=12;image=img/lib/azure2/power_platform/PowerBI.svg;strokeWidth=1;imageBackground=none;" parent="1" vertex="1">
          <mxGeometry x="890.87" y="-521" width="44.25" height="59" as="geometry" />
        </mxCell>
        <mxCell id="12eTkEtlXsUpFR4AQQ0C-39" value="" style="shape=image;html=1;verticalAlign=top;verticalLabelPosition=bottom;labelBackgroundColor=#ffffff;imageAspect=0;aspect=fixed;image=https://cdn4.iconfinder.com/data/icons/success-filloutline/64/chart-analysis-analytics-data_analytics-pie_1-128.png" parent="1" vertex="1">
          <mxGeometry x="890.87" y="-387.9" width="51" height="51" as="geometry" />
        </mxCell>
        <mxCell id="12eTkEtlXsUpFR4AQQ0C-40" value="BI &amp;amp; Reporting" style="text;html=1;align=center;verticalAlign=middle;whiteSpace=wrap;rounded=0;" parent="1" vertex="1">
          <mxGeometry x="864.43" y="-461" width="97.13" height="30" as="geometry" />
        </mxCell>
        <mxCell id="12eTkEtlXsUpFR4AQQ0C-41" value="Ad - Hoc&lt;div&gt;SQL Queries&lt;/div&gt;" style="text;html=1;align=center;verticalAlign=middle;whiteSpace=wrap;rounded=0;" parent="1" vertex="1">
          <mxGeometry x="867.8" y="-340" width="97.13" height="30" as="geometry" />
        </mxCell>
        <mxCell id="12eTkEtlXsUpFR4AQQ0C-42" value="" style="rounded=1;whiteSpace=wrap;html=1;fillColor=none;dashed=1;dashPattern=1 1;strokeColor=#242424;shadow=1;" parent="1" vertex="1">
          <mxGeometry x="196" y="-608" width="605" height="467.5" as="geometry" />
        </mxCell>
      </root>
    </mxGraphModel>
  </diagram>
  <diagram id="hw-kjTKZ5c13y8A96AOU" name="Page-2">
    <mxGraphModel dx="1082" dy="949" grid="1" gridSize="10" guides="1" tooltips="1" connect="1" arrows="1" fold="1" page="1" pageScale="1" pageWidth="827" pageHeight="1169" math="0" shadow="0">
      <root>
        <mxCell id="0" />
        <mxCell id="1" parent="0" />
        <mxCell id="xkvXRBORzHPfZcDFSw5I-1" value="&lt;font style=&quot;font-size: 20px;&quot;&gt;Sales_details&lt;/font&gt;" style="swimlane;fontStyle=0;childLayout=stackLayout;horizontal=1;startSize=30;horizontalStack=0;resizeParent=1;resizeParentMax=0;resizeLast=0;collapsible=1;marginBottom=0;whiteSpace=wrap;html=1;fillColor=#dae8fc;strokeColor=#6c8ebf;" vertex="1" parent="1">
          <mxGeometry x="1134" y="374" width="220" height="99" as="geometry" />
        </mxCell>
        <mxCell id="xkvXRBORzHPfZcDFSw5I-2" value="&lt;font style=&quot;font-size: 17px;&quot;&gt;Cst_id&lt;/font&gt;" style="text;strokeColor=none;fillColor=none;align=center;verticalAlign=middle;spacingLeft=4;spacingRight=4;overflow=hidden;points=[[0,0.5],[1,0.5]];portConstraint=eastwest;rotatable=0;whiteSpace=wrap;html=1;strokeWidth=3;" vertex="1" parent="xkvXRBORzHPfZcDFSw5I-1">
          <mxGeometry y="30" width="220" height="30" as="geometry" />
        </mxCell>
        <mxCell id="xkvXRBORzHPfZcDFSw5I-3" value="&lt;font style=&quot;font-size: 15px;&quot;&gt;Prd_Key&lt;/font&gt;" style="text;strokeColor=none;fillColor=none;align=center;verticalAlign=middle;spacingLeft=4;spacingRight=4;overflow=hidden;points=[[0,0.5],[1,0.5]];portConstraint=eastwest;rotatable=0;whiteSpace=wrap;html=1;" vertex="1" parent="xkvXRBORzHPfZcDFSw5I-1">
          <mxGeometry y="60" width="220" height="39" as="geometry" />
        </mxCell>
        <mxCell id="xkvXRBORzHPfZcDFSw5I-4" value="&lt;font style=&quot;font-size: 20px;&quot;&gt;Cust_info&lt;/font&gt;" style="swimlane;fontStyle=0;childLayout=stackLayout;horizontal=1;startSize=30;horizontalStack=0;resizeParent=1;resizeParentMax=0;resizeLast=0;collapsible=1;marginBottom=0;whiteSpace=wrap;html=1;fillColor=#dae8fc;strokeColor=#6c8ebf;" vertex="1" parent="1">
          <mxGeometry x="1532.6" y="308" width="226.5" height="90" as="geometry" />
        </mxCell>
        <mxCell id="xkvXRBORzHPfZcDFSw5I-5" value="&lt;font style=&quot;font-size: 17px;&quot;&gt;Cst_id&lt;/font&gt;" style="text;strokeColor=none;fillColor=none;align=center;verticalAlign=middle;spacingLeft=4;spacingRight=4;overflow=hidden;points=[[0,0.5],[1,0.5]];portConstraint=eastwest;rotatable=0;whiteSpace=wrap;html=1;strokeWidth=3;" vertex="1" parent="xkvXRBORzHPfZcDFSw5I-4">
          <mxGeometry y="30" width="226.5" height="30" as="geometry" />
        </mxCell>
        <mxCell id="xkvXRBORzHPfZcDFSw5I-6" style="edgeStyle=orthogonalEdgeStyle;rounded=0;orthogonalLoop=1;jettySize=auto;html=1;" edge="1" parent="xkvXRBORzHPfZcDFSw5I-4" source="xkvXRBORzHPfZcDFSw5I-7">
          <mxGeometry relative="1" as="geometry">
            <mxPoint x="250.4000000000001" y="75" as="targetPoint" />
          </mxGeometry>
        </mxCell>
        <mxCell id="xkvXRBORzHPfZcDFSw5I-7" value="&lt;font style=&quot;font-size: 17px;&quot;&gt;Cst_key&lt;/font&gt;" style="text;strokeColor=none;fillColor=none;align=center;verticalAlign=middle;spacingLeft=4;spacingRight=4;overflow=hidden;points=[[0,0.5],[1,0.5]];portConstraint=eastwest;rotatable=0;whiteSpace=wrap;html=1;strokeWidth=3;" vertex="1" parent="xkvXRBORzHPfZcDFSw5I-4">
          <mxGeometry y="60" width="226.5" height="30" as="geometry" />
        </mxCell>
        <mxCell id="xkvXRBORzHPfZcDFSw5I-8" value="&lt;font style=&quot;font-size: 20px;&quot;&gt;Prd_info&lt;/font&gt;" style="swimlane;fontStyle=0;childLayout=stackLayout;horizontal=1;startSize=30;horizontalStack=0;resizeParent=1;resizeParentMax=0;resizeLast=0;collapsible=1;marginBottom=0;whiteSpace=wrap;html=1;fillColor=#dae8fc;strokeColor=#6c8ebf;" vertex="1" parent="1">
          <mxGeometry x="1538" y="550" width="226.5" height="69" as="geometry" />
        </mxCell>
        <mxCell id="xkvXRBORzHPfZcDFSw5I-9" value="&lt;font style=&quot;font-size: 17px;&quot;&gt;Prd_Key&lt;/font&gt;" style="text;strokeColor=none;fillColor=none;align=center;verticalAlign=middle;spacingLeft=4;spacingRight=4;overflow=hidden;points=[[0,0.5],[1,0.5]];portConstraint=eastwest;rotatable=0;whiteSpace=wrap;html=1;" vertex="1" parent="xkvXRBORzHPfZcDFSw5I-8">
          <mxGeometry y="30" width="226.5" height="39" as="geometry" />
        </mxCell>
        <mxCell id="xkvXRBORzHPfZcDFSw5I-10" value="&lt;font style=&quot;font-size: 20px;&quot;&gt;Cust_az12&lt;/font&gt;" style="swimlane;fontStyle=0;childLayout=stackLayout;horizontal=1;startSize=30;horizontalStack=0;resizeParent=1;resizeParentMax=0;resizeLast=0;collapsible=1;marginBottom=0;whiteSpace=wrap;html=1;fillColor=#ffe6cc;strokeColor=#d79b00;" vertex="1" parent="1">
          <mxGeometry x="2069" y="220" width="226.5" height="60" as="geometry" />
        </mxCell>
        <mxCell id="xkvXRBORzHPfZcDFSw5I-11" value="&lt;span style=&quot;font-size: 17px;&quot;&gt;Cid&lt;/span&gt;" style="text;strokeColor=none;fillColor=none;align=center;verticalAlign=middle;spacingLeft=4;spacingRight=4;overflow=hidden;points=[[0,0.5],[1,0.5]];portConstraint=eastwest;rotatable=0;whiteSpace=wrap;html=1;strokeWidth=3;" vertex="1" parent="xkvXRBORzHPfZcDFSw5I-10">
          <mxGeometry y="30" width="226.5" height="30" as="geometry" />
        </mxCell>
        <mxCell id="xkvXRBORzHPfZcDFSw5I-12" value="&lt;span style=&quot;font-size: 20px;&quot;&gt;Loc_a101&lt;/span&gt;" style="swimlane;fontStyle=0;childLayout=stackLayout;horizontal=1;startSize=30;horizontalStack=0;resizeParent=1;resizeParentMax=0;resizeLast=0;collapsible=1;marginBottom=0;whiteSpace=wrap;html=1;fillColor=#ffe6cc;strokeColor=#d79b00;" vertex="1" parent="1">
          <mxGeometry x="2069" y="412" width="226.5" height="60" as="geometry" />
        </mxCell>
        <mxCell id="xkvXRBORzHPfZcDFSw5I-13" value="&lt;font style=&quot;font-size: 17px;&quot;&gt;Cid&lt;/font&gt;" style="text;strokeColor=none;fillColor=none;align=center;verticalAlign=middle;spacingLeft=4;spacingRight=4;overflow=hidden;points=[[0,0.5],[1,0.5]];portConstraint=eastwest;rotatable=0;whiteSpace=wrap;html=1;strokeWidth=3;" vertex="1" parent="xkvXRBORzHPfZcDFSw5I-12">
          <mxGeometry y="30" width="226.5" height="30" as="geometry" />
        </mxCell>
        <mxCell id="xkvXRBORzHPfZcDFSw5I-14" value="&lt;font style=&quot;font-size: 20px;&quot;&gt;px_cat_g1v2&lt;/font&gt;" style="swimlane;fontStyle=0;childLayout=stackLayout;horizontal=1;startSize=30;horizontalStack=0;resizeParent=1;resizeParentMax=0;resizeLast=0;collapsible=1;marginBottom=0;whiteSpace=wrap;html=1;fillColor=#ffe6cc;strokeColor=#d79b00;" vertex="1" parent="1">
          <mxGeometry x="2069" y="604" width="226.5" height="60" as="geometry" />
        </mxCell>
        <mxCell id="xkvXRBORzHPfZcDFSw5I-15" value="&lt;font style=&quot;font-size: 17px;&quot;&gt;Id&lt;/font&gt;" style="text;strokeColor=none;fillColor=none;align=center;verticalAlign=middle;spacingLeft=4;spacingRight=4;overflow=hidden;points=[[0,0.5],[1,0.5]];portConstraint=eastwest;rotatable=0;whiteSpace=wrap;html=1;strokeWidth=3;" vertex="1" parent="xkvXRBORzHPfZcDFSw5I-14">
          <mxGeometry y="30" width="226.5" height="30" as="geometry" />
        </mxCell>
        <mxCell id="xkvXRBORzHPfZcDFSw5I-16" style="edgeStyle=orthogonalEdgeStyle;rounded=0;orthogonalLoop=1;jettySize=auto;html=1;" edge="1" parent="1" source="xkvXRBORzHPfZcDFSw5I-3" target="xkvXRBORzHPfZcDFSw5I-9">
          <mxGeometry relative="1" as="geometry" />
        </mxCell>
        <mxCell id="xkvXRBORzHPfZcDFSw5I-17" style="edgeStyle=orthogonalEdgeStyle;rounded=0;orthogonalLoop=1;jettySize=auto;html=1;" edge="1" parent="1" source="xkvXRBORzHPfZcDFSw5I-2" target="xkvXRBORzHPfZcDFSw5I-5">
          <mxGeometry relative="1" as="geometry" />
        </mxCell>
        <mxCell id="xkvXRBORzHPfZcDFSw5I-18" style="edgeStyle=orthogonalEdgeStyle;rounded=0;orthogonalLoop=1;jettySize=auto;html=1;entryX=0;entryY=0.5;entryDx=0;entryDy=0;" edge="1" parent="1" source="xkvXRBORzHPfZcDFSw5I-9" target="xkvXRBORzHPfZcDFSw5I-15">
          <mxGeometry relative="1" as="geometry" />
        </mxCell>
        <mxCell id="xkvXRBORzHPfZcDFSw5I-19" value="&lt;font style=&quot;font-size: 17px;&quot;&gt;Transaction Details&lt;/font&gt;" style="text;html=1;align=center;verticalAlign=middle;whiteSpace=wrap;rounded=0;" vertex="1" parent="1">
          <mxGeometry x="1167" y="330" width="176" height="44" as="geometry" />
        </mxCell>
        <mxCell id="xkvXRBORzHPfZcDFSw5I-20" value="&lt;font style=&quot;font-size: 17px;&quot;&gt;Customer Info&lt;/font&gt;" style="text;html=1;align=center;verticalAlign=middle;whiteSpace=wrap;rounded=0;" vertex="1" parent="1">
          <mxGeometry x="1559.75" y="264" width="176" height="44" as="geometry" />
        </mxCell>
        <mxCell id="xkvXRBORzHPfZcDFSw5I-21" value="&lt;font style=&quot;font-size: 17px;&quot;&gt;Product Info&lt;/font&gt;" style="text;html=1;align=center;verticalAlign=middle;whiteSpace=wrap;rounded=0;" vertex="1" parent="1">
          <mxGeometry x="1559.75" y="506" width="176" height="44" as="geometry" />
        </mxCell>
        <mxCell id="xkvXRBORzHPfZcDFSw5I-22" value="&lt;span style=&quot;font-size: 17px;&quot;&gt;Extra customer info&lt;/span&gt;" style="text;html=1;align=center;verticalAlign=middle;whiteSpace=wrap;rounded=0;" vertex="1" parent="1">
          <mxGeometry x="2094.75" y="176" width="176" height="44" as="geometry" />
        </mxCell>
        <mxCell id="xkvXRBORzHPfZcDFSw5I-23" value="&lt;span style=&quot;font-size: 17px;&quot;&gt;Customer Location&lt;/span&gt;" style="text;html=1;align=center;verticalAlign=middle;whiteSpace=wrap;rounded=0;" vertex="1" parent="1">
          <mxGeometry x="2094.25" y="368" width="176" height="44" as="geometry" />
        </mxCell>
        <mxCell id="xkvXRBORzHPfZcDFSw5I-24" value="&lt;font style=&quot;font-size: 17px;&quot;&gt;Product Categories&lt;/font&gt;" style="text;html=1;align=center;verticalAlign=middle;whiteSpace=wrap;rounded=0;" vertex="1" parent="1">
          <mxGeometry x="2094.25" y="560" width="176" height="44" as="geometry" />
        </mxCell>
        <mxCell id="xkvXRBORzHPfZcDFSw5I-25" value="" style="rounded=1;whiteSpace=wrap;html=1;dashed=1;fillColor=none;strokeColor=#242424;" vertex="1" parent="1">
          <mxGeometry x="1090" y="154" width="770" height="539" as="geometry" />
        </mxCell>
        <mxCell id="xkvXRBORzHPfZcDFSw5I-26" value="&lt;font style=&quot;font-size: 28px;&quot;&gt;CRM&lt;/font&gt;" style="text;html=1;align=center;verticalAlign=middle;whiteSpace=wrap;rounded=0;fillColor=#dae8fc;strokeColor=#6c8ebf;" vertex="1" parent="1">
          <mxGeometry x="1330.52" y="99" width="198" height="55" as="geometry" />
        </mxCell>
        <mxCell id="xkvXRBORzHPfZcDFSw5I-27" value="" style="rounded=1;whiteSpace=wrap;html=1;dashed=1;fillColor=none;strokeColor=#242424;" vertex="1" parent="1">
          <mxGeometry x="1995.75" y="154" width="374" height="539" as="geometry" />
        </mxCell>
        <mxCell id="xkvXRBORzHPfZcDFSw5I-28" value="&lt;font style=&quot;font-size: 28px;&quot;&gt;ERP&lt;/font&gt;" style="text;html=1;align=center;verticalAlign=middle;whiteSpace=wrap;rounded=0;fillColor=#ffe6cc;strokeColor=#d79b00;" vertex="1" parent="1">
          <mxGeometry x="2069" y="99" width="198" height="55" as="geometry" />
        </mxCell>
        <mxCell id="xkvXRBORzHPfZcDFSw5I-29" style="edgeStyle=orthogonalEdgeStyle;rounded=0;orthogonalLoop=1;jettySize=auto;html=1;entryX=0;entryY=0.5;entryDx=0;entryDy=0;" edge="1" parent="1" source="xkvXRBORzHPfZcDFSw5I-7" target="xkvXRBORzHPfZcDFSw5I-11">
          <mxGeometry relative="1" as="geometry" />
        </mxCell>
        <mxCell id="xkvXRBORzHPfZcDFSw5I-30" style="edgeStyle=orthogonalEdgeStyle;rounded=0;orthogonalLoop=1;jettySize=auto;html=1;entryX=0;entryY=0.5;entryDx=0;entryDy=0;" edge="1" parent="1" source="xkvXRBORzHPfZcDFSw5I-7" target="xkvXRBORzHPfZcDFSw5I-13">
          <mxGeometry relative="1" as="geometry" />
        </mxCell>
      </root>
    </mxGraphModel>
  </diagram>
</mxfile>
